<mxfile host="Electron" modified="2023-12-07T20:16:12.518Z" agent="Mozilla/5.0 (Windows NT 10.0; Win64; x64) AppleWebKit/537.36 (KHTML, like Gecko) draw.io/22.1.2 Chrome/114.0.5735.289 Electron/25.9.4 Safari/537.36" etag="MS9lag3Q-JOWANEA3KfR" version="22.1.2" type="device">
  <diagram id="4iZJZHJHV5TDT_cYKZRZ" name="PÃ¡gina-1">
    <mxGraphModel dx="1302" dy="1842" grid="1" gridSize="10" guides="1" tooltips="1" connect="1" arrows="1" fold="1" page="1" pageScale="1" pageWidth="827" pageHeight="1169" math="0" shadow="0">
      <root>
        <mxCell id="0" />
        <mxCell id="1" parent="0" />
        <mxCell id="FKRPGxWnQrf4ftpTz-9f-1" value="&lt;b&gt;notebook&lt;/b&gt;" style="rounded=1;whiteSpace=wrap;html=1;fillColor=#dae8fc;strokeColor=#6c8ebf;" parent="1" vertex="1">
          <mxGeometry x="85" y="165.25" width="120" height="60" as="geometry" />
        </mxCell>
        <mxCell id="FKRPGxWnQrf4ftpTz-9f-2" value="&lt;font&gt;&lt;font size=&quot;1&quot; style=&quot;&quot;&gt;&lt;b style=&quot;font-size: 12px;&quot;&gt;modelo&lt;/b&gt;&lt;/font&gt;&lt;br&gt;&lt;/font&gt;" style="ellipse;whiteSpace=wrap;html=1;fontSize=20;rounded=1;fillColor=#ffe6cc;strokeColor=#d79b00;" parent="1" vertex="1">
          <mxGeometry x="165" y="321.25" width="120" height="29" as="geometry" />
        </mxCell>
        <mxCell id="FKRPGxWnQrf4ftpTz-9f-4" value="&lt;font size=&quot;1&quot; style=&quot;&quot;&gt;&lt;b style=&quot;font-size: 12px;&quot;&gt;marca&lt;/b&gt;&lt;/font&gt;" style="ellipse;whiteSpace=wrap;html=1;rounded=1;fillColor=#ffe6cc;strokeColor=#d79b00;" parent="1" vertex="1">
          <mxGeometry x="165" y="280.25" width="120" height="35" as="geometry" />
        </mxCell>
        <mxCell id="FKRPGxWnQrf4ftpTz-9f-5" value="&lt;font style=&quot;font-size: 12px;&quot;&gt;&lt;b&gt;&lt;u&gt;id_noteboock&lt;/u&gt;&lt;/b&gt;&lt;/font&gt;" style="ellipse;whiteSpace=wrap;html=1;fontSize=10;rounded=1;fillColor=#ffe6cc;strokeColor=#d79b00;" parent="1" vertex="1">
          <mxGeometry x="165" y="243.25" width="120" height="35" as="geometry" />
        </mxCell>
        <mxCell id="FKRPGxWnQrf4ftpTz-9f-6" style="edgeStyle=orthogonalEdgeStyle;rounded=0;orthogonalLoop=1;jettySize=auto;html=1;exitX=0.5;exitY=1;exitDx=0;exitDy=0;fontSize=12;" parent="1" source="FKRPGxWnQrf4ftpTz-9f-5" target="FKRPGxWnQrf4ftpTz-9f-5" edge="1">
          <mxGeometry relative="1" as="geometry" />
        </mxCell>
        <mxCell id="FKRPGxWnQrf4ftpTz-9f-7" value="&lt;font size=&quot;1&quot; style=&quot;&quot;&gt;&lt;b style=&quot;font-size: 12px;&quot;&gt;sis_operativo&lt;/b&gt;&lt;/font&gt;" style="ellipse;whiteSpace=wrap;html=1;fontSize=8;rounded=1;fillColor=#ffe6cc;strokeColor=#d79b00;" parent="1" vertex="1">
          <mxGeometry x="165" y="354.5" width="120" height="35" as="geometry" />
        </mxCell>
        <mxCell id="FKRPGxWnQrf4ftpTz-9f-11" value="" style="endArrow=none;html=1;rounded=0;fontSize=10;exitX=0;exitY=0.5;exitDx=0;exitDy=0;entryX=1;entryY=0.5;entryDx=0;entryDy=0;" parent="1" source="FKRPGxWnQrf4ftpTz-9f-7" target="Q3ga4fGWOBkwMkwhp4uk-21" edge="1">
          <mxGeometry width="50" height="50" relative="1" as="geometry">
            <mxPoint x="161.99999999999886" y="368" as="sourcePoint" />
            <mxPoint x="142" y="368.1100000000001" as="targetPoint" />
          </mxGeometry>
        </mxCell>
        <mxCell id="FKRPGxWnQrf4ftpTz-9f-12" value="" style="endArrow=none;html=1;rounded=0;fontSize=10;exitX=0;exitY=0.5;exitDx=0;exitDy=0;entryX=1;entryY=0.5;entryDx=0;entryDy=0;" parent="1" source="FKRPGxWnQrf4ftpTz-9f-2" target="Q3ga4fGWOBkwMkwhp4uk-18" edge="1">
          <mxGeometry width="50" height="50" relative="1" as="geometry">
            <mxPoint x="164" y="331.24" as="sourcePoint" />
            <mxPoint x="143" y="331.25" as="targetPoint" />
          </mxGeometry>
        </mxCell>
        <mxCell id="FKRPGxWnQrf4ftpTz-9f-13" value="" style="endArrow=none;html=1;rounded=0;fontSize=10;exitX=0;exitY=0.5;exitDx=0;exitDy=0;entryX=1;entryY=0.5;entryDx=0;entryDy=0;" parent="1" source="FKRPGxWnQrf4ftpTz-9f-4" target="Q3ga4fGWOBkwMkwhp4uk-17" edge="1">
          <mxGeometry width="50" height="50" relative="1" as="geometry">
            <mxPoint x="163.99999999999886" y="295.75" as="sourcePoint" />
            <mxPoint x="143" y="296.06999999999994" as="targetPoint" />
          </mxGeometry>
        </mxCell>
        <mxCell id="FKRPGxWnQrf4ftpTz-9f-14" value="" style="endArrow=none;html=1;rounded=0;fontSize=10;exitX=0;exitY=0.5;exitDx=0;exitDy=0;entryX=1;entryY=0.5;entryDx=0;entryDy=0;" parent="1" source="FKRPGxWnQrf4ftpTz-9f-5" target="Q3ga4fGWOBkwMkwhp4uk-16" edge="1">
          <mxGeometry width="50" height="50" relative="1" as="geometry">
            <mxPoint x="163" y="260.79" as="sourcePoint" />
            <mxPoint x="143" y="260.6100000000001" as="targetPoint" />
          </mxGeometry>
        </mxCell>
        <mxCell id="FKRPGxWnQrf4ftpTz-9f-24" style="edgeStyle=orthogonalEdgeStyle;rounded=0;orthogonalLoop=1;jettySize=auto;html=1;exitX=0.5;exitY=1;exitDx=0;exitDy=0;fontSize=12;" parent="1" edge="1">
          <mxGeometry relative="1" as="geometry">
            <mxPoint x="505.97000000000025" y="205" as="sourcePoint" />
            <mxPoint x="505.97000000000025" y="205" as="targetPoint" />
          </mxGeometry>
        </mxCell>
        <mxCell id="FKRPGxWnQrf4ftpTz-9f-34" value="&lt;span style=&quot;font-size: 12px;&quot;&gt;&lt;b&gt;fecha_hora&lt;/b&gt;&lt;/span&gt;" style="ellipse;whiteSpace=wrap;html=1;fontSize=20;rounded=1;fillColor=#f8cecc;strokeColor=#b85450;" parent="1" vertex="1">
          <mxGeometry x="750.3" y="486.25" width="120" height="35" as="geometry" />
        </mxCell>
        <mxCell id="FKRPGxWnQrf4ftpTz-9f-37" value="&lt;font style=&quot;font-size: 12px;&quot;&gt;&lt;b&gt;&lt;u&gt;id_Venta&lt;/u&gt;&lt;/b&gt;&lt;/font&gt;" style="ellipse;whiteSpace=wrap;html=1;fontSize=10;rounded=1;fillColor=#ffe6cc;strokeColor=#d79b00;" parent="1" vertex="1">
          <mxGeometry x="750.3" y="450.25" width="120" height="35" as="geometry" />
        </mxCell>
        <mxCell id="FKRPGxWnQrf4ftpTz-9f-38" style="edgeStyle=orthogonalEdgeStyle;rounded=0;orthogonalLoop=1;jettySize=auto;html=1;exitX=0.5;exitY=1;exitDx=0;exitDy=0;fontSize=12;" parent="1" edge="1">
          <mxGeometry relative="1" as="geometry">
            <mxPoint x="799.3000000000002" y="446.25" as="sourcePoint" />
            <mxPoint x="799.3000000000002" y="446.25" as="targetPoint" />
          </mxGeometry>
        </mxCell>
        <mxCell id="FKRPGxWnQrf4ftpTz-9f-47" style="edgeStyle=orthogonalEdgeStyle;rounded=0;orthogonalLoop=1;jettySize=auto;html=1;exitX=0.5;exitY=1;exitDx=0;exitDy=0;fontSize=12;" parent="1" edge="1">
          <mxGeometry relative="1" as="geometry">
            <mxPoint x="1096.5300000000002" y="37.5" as="sourcePoint" />
            <mxPoint x="1096.5300000000002" y="37.5" as="targetPoint" />
          </mxGeometry>
        </mxCell>
        <mxCell id="FKRPGxWnQrf4ftpTz-9f-51" style="edgeStyle=orthogonalEdgeStyle;rounded=0;orthogonalLoop=1;jettySize=auto;html=1;exitX=0.5;exitY=1;exitDx=0;exitDy=0;fontSize=12;" parent="1" edge="1">
          <mxGeometry relative="1" as="geometry">
            <mxPoint x="882.3000000000002" y="420.75" as="sourcePoint" />
            <mxPoint x="882.3000000000002" y="420.75" as="targetPoint" />
          </mxGeometry>
        </mxCell>
        <mxCell id="FKRPGxWnQrf4ftpTz-9f-63" value="&lt;font size=&quot;1&quot; style=&quot;&quot;&gt;&lt;b style=&quot;font-size: 12px;&quot;&gt;procesador&lt;/b&gt;&lt;/font&gt;" style="ellipse;whiteSpace=wrap;html=1;fontSize=8;rounded=1;fillColor=#ffe6cc;strokeColor=#d79b00;" parent="1" vertex="1">
          <mxGeometry x="165" y="387.5" width="120" height="35" as="geometry" />
        </mxCell>
        <mxCell id="FKRPGxWnQrf4ftpTz-9f-69" value="&lt;b&gt;Venta&lt;/b&gt;" style="rounded=1;whiteSpace=wrap;html=1;fillColor=#dae8fc;strokeColor=#6c8ebf;" parent="1" vertex="1">
          <mxGeometry x="705.77" y="369.25" width="120" height="60" as="geometry" />
        </mxCell>
        <mxCell id="FKRPGxWnQrf4ftpTz-9f-70" value="&lt;b&gt;proveedor&lt;/b&gt;" style="rounded=1;whiteSpace=wrap;html=1;fillColor=#dae8fc;strokeColor=#6c8ebf;" parent="1" vertex="1">
          <mxGeometry x="956" y="5.5" width="120" height="60" as="geometry" />
        </mxCell>
        <mxCell id="FKRPGxWnQrf4ftpTz-9f-71" value="&lt;font style=&quot;font-size: 12px;&quot;&gt;&lt;b&gt;nom_proveedor&lt;/b&gt;&lt;/font&gt;" style="ellipse;whiteSpace=wrap;html=1;fontSize=10;rounded=1;fillColor=#ffe6cc;strokeColor=#d79b00;" parent="1" vertex="1">
          <mxGeometry x="985" y="112" width="120" height="35" as="geometry" />
        </mxCell>
        <mxCell id="FKRPGxWnQrf4ftpTz-9f-72" value="&lt;font style=&quot;font-size: 12px;&quot;&gt;&lt;b&gt;&lt;u&gt;idProveedor&lt;/u&gt;&lt;/b&gt;&lt;/font&gt;" style="ellipse;whiteSpace=wrap;html=1;fontSize=10;rounded=1;fillColor=#ffe6cc;strokeColor=#d79b00;" parent="1" vertex="1">
          <mxGeometry x="985" y="75" width="120" height="35" as="geometry" />
        </mxCell>
        <mxCell id="FKRPGxWnQrf4ftpTz-9f-73" value="&lt;font style=&quot;font-size: 12px;&quot;&gt;&lt;b&gt;cel&lt;/b&gt;&lt;/font&gt;" style="ellipse;whiteSpace=wrap;html=1;fontSize=10;rounded=1;fillColor=#ffe6cc;strokeColor=#d79b00;" parent="1" vertex="1">
          <mxGeometry x="985" y="149.5" width="120" height="35" as="geometry" />
        </mxCell>
        <mxCell id="OxglG-ZOT_gyuKt3mVDD-1" value="&lt;font style=&quot;font-size: 12px;&quot;&gt;&lt;b&gt;nom_distribuidora&lt;/b&gt;&lt;/font&gt;" style="ellipse;whiteSpace=wrap;html=1;fontSize=10;rounded=1;fillColor=#ffe6cc;strokeColor=#d79b00;" parent="1" vertex="1">
          <mxGeometry x="985" y="187" width="120" height="35" as="geometry" />
        </mxCell>
        <mxCell id="OxglG-ZOT_gyuKt3mVDD-2" value="&lt;span style=&quot;font-size: 12px;&quot;&gt;&lt;b&gt;direccion&lt;/b&gt;&lt;/span&gt;" style="ellipse;whiteSpace=wrap;html=1;fontSize=10;rounded=1;fillColor=#ffe6cc;strokeColor=#d79b00;" parent="1" vertex="1">
          <mxGeometry x="989" y="225" width="120" height="35" as="geometry" />
        </mxCell>
        <mxCell id="OxglG-ZOT_gyuKt3mVDD-21" value="" style="endArrow=none;html=1;rounded=0;fontSize=12;entryX=0.205;entryY=1.014;entryDx=0;entryDy=0;entryPerimeter=0;" parent="1" edge="1">
          <mxGeometry width="50" height="50" relative="1" as="geometry">
            <mxPoint x="726.77" y="592.25" as="sourcePoint" />
            <mxPoint x="726.9000000000001" y="430.09000000000003" as="targetPoint" />
          </mxGeometry>
        </mxCell>
        <mxCell id="OxglG-ZOT_gyuKt3mVDD-24" value="&lt;span style=&quot;font-size: 12px;&quot;&gt;&lt;b&gt;precio_final()&lt;/b&gt;&lt;/span&gt;" style="ellipse;whiteSpace=wrap;html=1;fontSize=8;rounded=1;fillColor=#f8cecc;strokeColor=#b85450;" parent="1" vertex="1">
          <mxGeometry x="750.3" y="628.25" width="120" height="35" as="geometry" />
        </mxCell>
        <mxCell id="OxglG-ZOT_gyuKt3mVDD-25" value="" style="endArrow=none;html=1;rounded=0;fontSize=12;entryX=0;entryY=0.5;entryDx=0;entryDy=0;" parent="1" target="OxglG-ZOT_gyuKt3mVDD-24" edge="1">
          <mxGeometry width="50" height="50" relative="1" as="geometry">
            <mxPoint x="726.77" y="560.25" as="sourcePoint" />
            <mxPoint x="636.77" y="475.25" as="targetPoint" />
            <Array as="points">
              <mxPoint x="726.77" y="646.25" />
            </Array>
          </mxGeometry>
        </mxCell>
        <mxCell id="OxglG-ZOT_gyuKt3mVDD-30" value="&lt;b&gt;Brinda&lt;/b&gt;" style="rhombus;whiteSpace=wrap;html=1;fillColor=#f8cecc;strokeColor=#b85450;rounded=1;" parent="1" vertex="1">
          <mxGeometry x="848" y="-0.5" width="70" height="70" as="geometry" />
        </mxCell>
        <mxCell id="OxglG-ZOT_gyuKt3mVDD-34" value="" style="endArrow=none;html=1;rounded=0;fontSize=12;entryX=0.5;entryY=1;entryDx=0;entryDy=0;" parent="1" edge="1">
          <mxGeometry width="50" height="50" relative="1" as="geometry">
            <mxPoint x="965" y="246" as="sourcePoint" />
            <mxPoint x="965" y="65.5" as="targetPoint" />
            <Array as="points" />
          </mxGeometry>
        </mxCell>
        <mxCell id="OxglG-ZOT_gyuKt3mVDD-35" value="" style="endArrow=none;html=1;rounded=0;fontSize=12;" parent="1" edge="1">
          <mxGeometry width="50" height="50" relative="1" as="geometry">
            <mxPoint x="965" y="246" as="sourcePoint" />
            <mxPoint x="995" y="246" as="targetPoint" />
          </mxGeometry>
        </mxCell>
        <mxCell id="OxglG-ZOT_gyuKt3mVDD-36" value="" style="endArrow=none;html=1;rounded=0;fontSize=12;entryX=0;entryY=0.5;entryDx=0;entryDy=0;" parent="1" target="OxglG-ZOT_gyuKt3mVDD-1" edge="1">
          <mxGeometry width="50" height="50" relative="1" as="geometry">
            <mxPoint x="965" y="205" as="sourcePoint" />
            <mxPoint x="984.9999999999998" y="205.5" as="targetPoint" />
          </mxGeometry>
        </mxCell>
        <mxCell id="OxglG-ZOT_gyuKt3mVDD-37" value="" style="endArrow=none;html=1;rounded=0;fontSize=12;entryX=0;entryY=0.5;entryDx=0;entryDy=0;" parent="1" target="FKRPGxWnQrf4ftpTz-9f-73" edge="1">
          <mxGeometry width="50" height="50" relative="1" as="geometry">
            <mxPoint x="965" y="167" as="sourcePoint" />
            <mxPoint x="985.96" y="167.625" as="targetPoint" />
          </mxGeometry>
        </mxCell>
        <mxCell id="OxglG-ZOT_gyuKt3mVDD-40" value="" style="endArrow=none;html=1;rounded=0;fontSize=12;entryX=0;entryY=0.474;entryDx=0;entryDy=0;entryPerimeter=0;" parent="1" target="FKRPGxWnQrf4ftpTz-9f-71" edge="1">
          <mxGeometry width="50" height="50" relative="1" as="geometry">
            <mxPoint x="965" y="129" as="sourcePoint" />
            <mxPoint x="1015" y="119" as="targetPoint" />
          </mxGeometry>
        </mxCell>
        <mxCell id="OxglG-ZOT_gyuKt3mVDD-41" value="" style="endArrow=none;html=1;rounded=0;fontSize=12;entryX=0;entryY=0.5;entryDx=0;entryDy=0;" parent="1" target="FKRPGxWnQrf4ftpTz-9f-72" edge="1">
          <mxGeometry width="50" height="50" relative="1" as="geometry">
            <mxPoint x="965" y="92" as="sourcePoint" />
            <mxPoint x="1015" y="42" as="targetPoint" />
          </mxGeometry>
        </mxCell>
        <mxCell id="FJA29uWBeo9YNQBbXOLT-3" style="edgeStyle=orthogonalEdgeStyle;rounded=0;orthogonalLoop=1;jettySize=auto;html=1;exitX=0.5;exitY=1;exitDx=0;exitDy=0;fontSize=12;" parent="1" edge="1">
          <mxGeometry relative="1" as="geometry">
            <mxPoint x="253.06000000000017" y="318.25" as="sourcePoint" />
            <mxPoint x="253.06000000000017" y="318.25" as="targetPoint" />
          </mxGeometry>
        </mxCell>
        <mxCell id="FJA29uWBeo9YNQBbXOLT-15" value="" style="endArrow=none;html=1;rounded=0;fontSize=10;exitX=0.002;exitY=0.54;exitDx=0;exitDy=0;exitPerimeter=0;" parent="1" edge="1">
          <mxGeometry width="50" height="50" relative="1" as="geometry">
            <mxPoint x="751.54" y="575.4000000000001" as="sourcePoint" />
            <mxPoint x="725.77" y="575.25" as="targetPoint" />
          </mxGeometry>
        </mxCell>
        <mxCell id="FJA29uWBeo9YNQBbXOLT-16" value="" style="endArrow=none;html=1;rounded=0;fontSize=10;exitX=0;exitY=0.5;exitDx=0;exitDy=0;" parent="1" edge="1">
          <mxGeometry width="50" height="50" relative="1" as="geometry">
            <mxPoint x="751.3000000000047" y="539.75" as="sourcePoint" />
            <mxPoint x="726.77" y="540.25" as="targetPoint" />
          </mxGeometry>
        </mxCell>
        <mxCell id="FJA29uWBeo9YNQBbXOLT-20" value="&lt;b style=&quot;border-color: var(--border-color);&quot;&gt;&lt;span style=&quot;border-color: var(--border-color);&quot;&gt;&lt;u&gt;id_&lt;/u&gt;&lt;/span&gt;&lt;/b&gt;&lt;b style=&quot;border-color: var(--border-color);&quot;&gt;&lt;u&gt;detalle_compra&lt;/u&gt;&lt;/b&gt;" style="ellipse;whiteSpace=wrap;html=1;rounded=1;fillColor=#ffe6cc;strokeColor=#d79b00;" parent="1" vertex="1">
          <mxGeometry x="435.97" y="69.25" width="120" height="35" as="geometry" />
        </mxCell>
        <mxCell id="FJA29uWBeo9YNQBbXOLT-22" style="edgeStyle=orthogonalEdgeStyle;rounded=0;orthogonalLoop=1;jettySize=auto;html=1;exitX=0.5;exitY=1;exitDx=0;exitDy=0;fontSize=12;" parent="1" edge="1">
          <mxGeometry relative="1" as="geometry">
            <mxPoint x="148.5300000000002" y="267.88" as="sourcePoint" />
            <mxPoint x="148.5300000000002" y="267.88" as="targetPoint" />
          </mxGeometry>
        </mxCell>
        <mxCell id="FJA29uWBeo9YNQBbXOLT-28" value="&lt;b&gt;id_Compra&lt;/b&gt;" style="ellipse;whiteSpace=wrap;html=1;rounded=1;fillColor=#ffe6cc;strokeColor=#d79b00;" parent="1" vertex="1">
          <mxGeometry x="435.97" y="109.25" width="120" height="35" as="geometry" />
        </mxCell>
        <mxCell id="vaeVQvCcm71hGmkr10x6-10" value="&lt;font size=&quot;1&quot; style=&quot;&quot;&gt;&lt;b style=&quot;font-size: 12px;&quot;&gt;id_noteboock&lt;/b&gt;&lt;/font&gt;" style="ellipse;whiteSpace=wrap;html=1;rounded=1;fillColor=#ffe6cc;strokeColor=#d79b00;" parent="1" vertex="1">
          <mxGeometry x="471.79999999999995" y="469.25" width="120" height="35" as="geometry" />
        </mxCell>
        <mxCell id="vaeVQvCcm71hGmkr10x6-11" value="&lt;font size=&quot;1&quot; style=&quot;&quot;&gt;&lt;b style=&quot;font-size: 12px;&quot;&gt;id_venta&lt;/b&gt;&lt;/font&gt;" style="ellipse;whiteSpace=wrap;html=1;fontSize=8;rounded=1;fillColor=#ffe6cc;strokeColor=#d79b00;" parent="1" vertex="1">
          <mxGeometry x="471.79999999999995" y="505.25" width="120" height="35" as="geometry" />
        </mxCell>
        <mxCell id="vaeVQvCcm71hGmkr10x6-12" value="&lt;font style=&quot;font-size: 12px;&quot;&gt;&lt;b&gt;&lt;u&gt;idnoteboock_venta&lt;/u&gt;&lt;/b&gt;&lt;/font&gt;" style="ellipse;whiteSpace=wrap;html=1;fontSize=10;rounded=1;fillColor=#ffe6cc;strokeColor=#d79b00;" parent="1" vertex="1">
          <mxGeometry x="471.79999999999995" y="434.25" width="120" height="35" as="geometry" />
        </mxCell>
        <mxCell id="vaeVQvCcm71hGmkr10x6-15" value="" style="endArrow=none;html=1;rounded=0;fontSize=10;exitX=0;exitY=0.5;exitDx=0;exitDy=0;" parent="1" source="vaeVQvCcm71hGmkr10x6-10" edge="1">
          <mxGeometry width="50" height="50" relative="1" as="geometry">
            <mxPoint x="471.8000000000002" y="478" as="sourcePoint" />
            <mxPoint x="446.27" y="487.25" as="targetPoint" />
          </mxGeometry>
        </mxCell>
        <mxCell id="vaeVQvCcm71hGmkr10x6-16" value="" style="endArrow=none;html=1;rounded=0;fontSize=12;entryX=0.131;entryY=1.005;entryDx=0;entryDy=0;entryPerimeter=0;exitX=0;exitY=0.5;exitDx=0;exitDy=0;" parent="1" source="vaeVQvCcm71hGmkr10x6-11" edge="1">
          <mxGeometry width="50" height="50" relative="1" as="geometry">
            <mxPoint x="471.7999999999997" y="557" as="sourcePoint" />
            <mxPoint x="444.99" y="429.5499999999997" as="targetPoint" />
            <Array as="points">
              <mxPoint x="445.27" y="522.75" />
            </Array>
          </mxGeometry>
        </mxCell>
        <mxCell id="vaeVQvCcm71hGmkr10x6-17" value="" style="endArrow=none;html=1;rounded=0;entryX=0;entryY=0.569;entryDx=0;entryDy=0;entryPerimeter=0;" parent="1" target="vaeVQvCcm71hGmkr10x6-12" edge="1">
          <mxGeometry width="50" height="50" relative="1" as="geometry">
            <mxPoint x="446.27" y="454.2500000000001" as="sourcePoint" />
            <mxPoint x="466.27" y="454.25" as="targetPoint" />
          </mxGeometry>
        </mxCell>
        <mxCell id="vaeVQvCcm71hGmkr10x6-22" value="&lt;font&gt;&lt;font size=&quot;1&quot; style=&quot;&quot;&gt;&lt;b style=&quot;font-size: 12px;&quot;&gt;id_noteboock&lt;/b&gt;&lt;/font&gt;&lt;br&gt;&lt;/font&gt;" style="ellipse;whiteSpace=wrap;html=1;fontSize=20;rounded=1;fillColor=#ffe6cc;strokeColor=#d79b00;" parent="1" vertex="1">
          <mxGeometry x="436.44000000000005" y="143.25" width="120" height="35" as="geometry" />
        </mxCell>
        <mxCell id="vaeVQvCcm71hGmkr10x6-25" style="edgeStyle=orthogonalEdgeStyle;rounded=0;orthogonalLoop=1;jettySize=auto;html=1;exitX=0.5;exitY=1;exitDx=0;exitDy=0;fontSize=12;" parent="1" edge="1">
          <mxGeometry relative="1" as="geometry">
            <mxPoint x="495.44000000000005" y="142.25" as="sourcePoint" />
            <mxPoint x="495.44000000000005" y="142.25" as="targetPoint" />
          </mxGeometry>
        </mxCell>
        <mxCell id="vaeVQvCcm71hGmkr10x6-26" value="&lt;font size=&quot;1&quot; style=&quot;&quot;&gt;&lt;b style=&quot;font-size: 12px;&quot;&gt;cantidad&lt;/b&gt;&lt;/font&gt;" style="ellipse;whiteSpace=wrap;html=1;fontSize=8;rounded=1;fillColor=#ffe6cc;strokeColor=#d79b00;" parent="1" vertex="1">
          <mxGeometry x="436.44000000000005" y="180.5" width="120" height="35" as="geometry" />
        </mxCell>
        <mxCell id="vaeVQvCcm71hGmkr10x6-36" value="&lt;b&gt;Puede&lt;/b&gt;" style="rhombus;whiteSpace=wrap;html=1;fillColor=#f8cecc;strokeColor=#b85450;rounded=1;" parent="1" vertex="1">
          <mxGeometry x="300" y="163" width="70" height="70" as="geometry" />
        </mxCell>
        <mxCell id="Q3ga4fGWOBkwMkwhp4uk-3" value="&lt;b style=&quot;border-color: var(--border-color); font-size: 12px;&quot;&gt;precio_costo&lt;/b&gt;" style="ellipse;whiteSpace=wrap;html=1;fontSize=8;rounded=1;fillColor=#ffe6cc;strokeColor=#d79b00;" parent="1" vertex="1">
          <mxGeometry x="437.44000000000005" y="215.5" width="120" height="35" as="geometry" />
        </mxCell>
        <mxCell id="Q3ga4fGWOBkwMkwhp4uk-8" value="&lt;font style=&quot;font-size: 12px;&quot;&gt;&lt;b&gt;precio_total()&lt;/b&gt;&lt;/font&gt;" style="ellipse;whiteSpace=wrap;html=1;fontSize=10;rounded=1;fillColor=#f8cecc;strokeColor=#b85450;" parent="1" vertex="1">
          <mxGeometry x="436.44000000000005" y="250.5" width="120" height="35" as="geometry" />
        </mxCell>
        <mxCell id="Q3ga4fGWOBkwMkwhp4uk-10" value="&lt;font&gt;&lt;font size=&quot;1&quot; style=&quot;&quot;&gt;&lt;b style=&quot;font-size: 12px;&quot;&gt;memoria_ram&lt;/b&gt;&lt;/font&gt;&lt;br&gt;&lt;/font&gt;" style="ellipse;whiteSpace=wrap;html=1;fontSize=20;rounded=1;fillColor=#ffe6cc;strokeColor=#d79b00;" parent="1" vertex="1">
          <mxGeometry x="164" y="494.25" width="120" height="35" as="geometry" />
        </mxCell>
        <mxCell id="Q3ga4fGWOBkwMkwhp4uk-11" value="&lt;font size=&quot;1&quot; style=&quot;&quot;&gt;&lt;b style=&quot;font-size: 12px;&quot;&gt;veloc_CPU&lt;/b&gt;&lt;/font&gt;" style="ellipse;whiteSpace=wrap;html=1;rounded=1;fillColor=#ffe6cc;strokeColor=#d79b00;" parent="1" vertex="1">
          <mxGeometry x="164" y="459.25" width="120" height="35" as="geometry" />
        </mxCell>
        <mxCell id="Q3ga4fGWOBkwMkwhp4uk-12" value="&lt;font style=&quot;font-size: 12px;&quot;&gt;&lt;b&gt;nucleos&lt;/b&gt;&lt;/font&gt;" style="ellipse;whiteSpace=wrap;html=1;fontSize=10;rounded=1;fillColor=#ffe6cc;strokeColor=#d79b00;" parent="1" vertex="1">
          <mxGeometry x="164" y="424.25" width="120" height="35" as="geometry" />
        </mxCell>
        <mxCell id="Q3ga4fGWOBkwMkwhp4uk-13" style="edgeStyle=orthogonalEdgeStyle;rounded=0;orthogonalLoop=1;jettySize=auto;html=1;exitX=0.5;exitY=1;exitDx=0;exitDy=0;fontSize=12;" parent="1" source="Q3ga4fGWOBkwMkwhp4uk-12" target="Q3ga4fGWOBkwMkwhp4uk-12" edge="1">
          <mxGeometry relative="1" as="geometry" />
        </mxCell>
        <mxCell id="Q3ga4fGWOBkwMkwhp4uk-14" value="&lt;font size=&quot;1&quot; style=&quot;&quot;&gt;&lt;b style=&quot;font-size: 12px;&quot;&gt;HDD&lt;/b&gt;&lt;/font&gt;" style="ellipse;whiteSpace=wrap;html=1;fontSize=8;rounded=1;fillColor=#ffe6cc;strokeColor=#d79b00;" parent="1" vertex="1">
          <mxGeometry x="10" y="459.25" width="120" height="35" as="geometry" />
        </mxCell>
        <mxCell id="Q3ga4fGWOBkwMkwhp4uk-16" value="&lt;font&gt;&lt;font size=&quot;1&quot; style=&quot;&quot;&gt;&lt;b style=&quot;font-size: 12px;&quot;&gt;mem_video&lt;/b&gt;&lt;/font&gt;&lt;br&gt;&lt;/font&gt;" style="ellipse;whiteSpace=wrap;html=1;fontSize=20;rounded=1;fillColor=#ffe6cc;strokeColor=#d79b00;" parent="1" vertex="1">
          <mxGeometry x="11" y="243.25" width="120" height="35" as="geometry" />
        </mxCell>
        <mxCell id="Q3ga4fGWOBkwMkwhp4uk-17" value="&lt;font size=&quot;1&quot; style=&quot;&quot;&gt;&lt;b style=&quot;font-size: 12px;&quot;&gt;puertos_usb&lt;/b&gt;&lt;/font&gt;" style="ellipse;whiteSpace=wrap;html=1;fontSize=8;rounded=1;fillColor=#ffe6cc;strokeColor=#d79b00;" parent="1" vertex="1">
          <mxGeometry x="11" y="280.5" width="120" height="35" as="geometry" />
        </mxCell>
        <mxCell id="Q3ga4fGWOBkwMkwhp4uk-18" value="&lt;font size=&quot;1&quot; style=&quot;&quot;&gt;&lt;b style=&quot;font-size: 12px;&quot;&gt;red_RJ45&lt;/b&gt;&lt;/font&gt;" style="ellipse;whiteSpace=wrap;html=1;fontSize=8;rounded=1;fillColor=#ffe6cc;strokeColor=#d79b00;" parent="1" vertex="1">
          <mxGeometry x="11" y="317.5" width="120" height="35" as="geometry" />
        </mxCell>
        <mxCell id="Q3ga4fGWOBkwMkwhp4uk-19" value="&lt;font&gt;&lt;font size=&quot;1&quot; style=&quot;&quot;&gt;&lt;b style=&quot;font-size: 12px;&quot;&gt;stock&lt;/b&gt;&lt;/font&gt;&lt;br&gt;&lt;/font&gt;" style="ellipse;whiteSpace=wrap;html=1;fontSize=20;rounded=1;fillColor=#ffe6cc;strokeColor=#d79b00;" parent="1" vertex="1">
          <mxGeometry x="10" y="424.25" width="120" height="35" as="geometry" />
        </mxCell>
        <mxCell id="Q3ga4fGWOBkwMkwhp4uk-20" value="&lt;b style=&quot;border-color: var(--border-color);&quot;&gt;SDD&lt;/b&gt;" style="ellipse;whiteSpace=wrap;html=1;rounded=1;fillColor=#ffe6cc;strokeColor=#d79b00;" parent="1" vertex="1">
          <mxGeometry x="10" y="389.25" width="120" height="35" as="geometry" />
        </mxCell>
        <mxCell id="Q3ga4fGWOBkwMkwhp4uk-21" value="&lt;font style=&quot;font-size: 12px;&quot;&gt;&lt;b&gt;precio_unitario&lt;/b&gt;&lt;/font&gt;" style="ellipse;whiteSpace=wrap;html=1;fontSize=10;rounded=1;fillColor=#ffe6cc;strokeColor=#d79b00;" parent="1" vertex="1">
          <mxGeometry x="10" y="354.25" width="120" height="35" as="geometry" />
        </mxCell>
        <mxCell id="Q3ga4fGWOBkwMkwhp4uk-22" style="edgeStyle=orthogonalEdgeStyle;rounded=0;orthogonalLoop=1;jettySize=auto;html=1;exitX=0.5;exitY=1;exitDx=0;exitDy=0;fontSize=12;" parent="1" source="Q3ga4fGWOBkwMkwhp4uk-21" target="Q3ga4fGWOBkwMkwhp4uk-21" edge="1">
          <mxGeometry relative="1" as="geometry" />
        </mxCell>
        <mxCell id="Q3ga4fGWOBkwMkwhp4uk-23" value="&lt;font size=&quot;1&quot; style=&quot;&quot;&gt;&lt;b style=&quot;font-size: 12px;&quot;&gt;stock_valorizado&lt;/b&gt;&lt;/font&gt;" style="ellipse;whiteSpace=wrap;html=1;fontSize=8;rounded=1;fillColor=#f8cecc;strokeColor=#b85450;" parent="1" vertex="1">
          <mxGeometry x="10" y="494.25" width="120" height="35" as="geometry" />
        </mxCell>
        <mxCell id="Q3ga4fGWOBkwMkwhp4uk-27" value="" style="endArrow=none;html=1;rounded=0;fontSize=10;exitX=0;exitY=0.5;exitDx=0;exitDy=0;entryX=1;entryY=0.5;entryDx=0;entryDy=0;" parent="1" edge="1">
          <mxGeometry width="50" height="50" relative="1" as="geometry">
            <mxPoint x="164" y="515.25" as="sourcePoint" />
            <mxPoint x="129" y="515.25" as="targetPoint" />
          </mxGeometry>
        </mxCell>
        <mxCell id="Q3ga4fGWOBkwMkwhp4uk-28" value="" style="endArrow=none;html=1;rounded=0;fontSize=10;exitX=0;exitY=0.5;exitDx=0;exitDy=0;entryX=1;entryY=0.5;entryDx=0;entryDy=0;" parent="1" edge="1">
          <mxGeometry width="50" height="50" relative="1" as="geometry">
            <mxPoint x="164" y="479.25" as="sourcePoint" />
            <mxPoint x="130" y="478.25" as="targetPoint" />
          </mxGeometry>
        </mxCell>
        <mxCell id="Q3ga4fGWOBkwMkwhp4uk-29" value="" style="endArrow=none;html=1;rounded=0;fontSize=10;exitX=0;exitY=0.5;exitDx=0;exitDy=0;entryX=1;entryY=0.5;entryDx=0;entryDy=0;" parent="1" edge="1">
          <mxGeometry width="50" height="50" relative="1" as="geometry">
            <mxPoint x="164" y="441.25" as="sourcePoint" />
            <mxPoint x="130" y="441.25" as="targetPoint" />
          </mxGeometry>
        </mxCell>
        <mxCell id="Q3ga4fGWOBkwMkwhp4uk-30" value="" style="endArrow=none;html=1;rounded=0;fontSize=10;exitX=0;exitY=0.5;exitDx=0;exitDy=0;entryX=1;entryY=0.5;entryDx=0;entryDy=0;" parent="1" edge="1">
          <mxGeometry width="50" height="50" relative="1" as="geometry">
            <mxPoint x="164" y="404.25" as="sourcePoint" />
            <mxPoint x="130" y="404.25" as="targetPoint" />
          </mxGeometry>
        </mxCell>
        <mxCell id="Q3ga4fGWOBkwMkwhp4uk-32" value="" style="endArrow=none;html=1;rounded=0;fontSize=10;entryX=0.5;entryY=1;entryDx=0;entryDy=0;" parent="1" target="FKRPGxWnQrf4ftpTz-9f-1" edge="1">
          <mxGeometry width="50" height="50" relative="1" as="geometry">
            <mxPoint x="147.52999999999997" y="516.25" as="sourcePoint" />
            <mxPoint x="156" y="535.25" as="targetPoint" />
          </mxGeometry>
        </mxCell>
        <mxCell id="Q3ga4fGWOBkwMkwhp4uk-33" value="" style="endArrow=none;html=1;rounded=0;exitX=0;exitY=1;exitDx=0;exitDy=0;entryX=0;entryY=0.5;entryDx=0;entryDy=0;" parent="1" target="Q3ga4fGWOBkwMkwhp4uk-8" edge="1">
          <mxGeometry width="50" height="50" relative="1" as="geometry">
            <mxPoint x="424.97" y="65.5" as="sourcePoint" />
            <mxPoint x="579.97" y="97.25" as="targetPoint" />
            <Array as="points">
              <mxPoint x="424.97" y="267.25" />
            </Array>
          </mxGeometry>
        </mxCell>
        <mxCell id="Q3ga4fGWOBkwMkwhp4uk-36" value="" style="endArrow=none;html=1;rounded=0;exitX=0;exitY=0.5;exitDx=0;exitDy=0;entryX=0;entryY=1;entryDx=0;entryDy=0;" parent="1" source="Q3ga4fGWOBkwMkwhp4uk-3" edge="1">
          <mxGeometry width="50" height="50" relative="1" as="geometry">
            <mxPoint x="529.97" y="147.25" as="sourcePoint" />
            <mxPoint x="424.97" y="65.5" as="targetPoint" />
            <Array as="points">
              <mxPoint x="424.97" y="233.25" />
            </Array>
          </mxGeometry>
        </mxCell>
        <mxCell id="Q3ga4fGWOBkwMkwhp4uk-37" value="" style="endArrow=none;html=1;rounded=0;exitX=0;exitY=0.5;exitDx=0;exitDy=0;entryX=0;entryY=1;entryDx=0;entryDy=0;" parent="1" source="vaeVQvCcm71hGmkr10x6-26" edge="1">
          <mxGeometry width="50" height="50" relative="1" as="geometry">
            <mxPoint x="529.97" y="147.25" as="sourcePoint" />
            <mxPoint x="424.97" y="65.5" as="targetPoint" />
            <Array as="points">
              <mxPoint x="424.97" y="198.25" />
            </Array>
          </mxGeometry>
        </mxCell>
        <mxCell id="Q3ga4fGWOBkwMkwhp4uk-38" value="" style="endArrow=none;html=1;rounded=0;exitX=0;exitY=1;exitDx=0;exitDy=0;entryX=0;entryY=0.5;entryDx=0;entryDy=0;" parent="1" target="FJA29uWBeo9YNQBbXOLT-20" edge="1">
          <mxGeometry width="50" height="50" relative="1" as="geometry">
            <mxPoint x="424.97" y="65.5" as="sourcePoint" />
            <mxPoint x="579.97" y="97.25" as="targetPoint" />
            <Array as="points">
              <mxPoint x="424.97" y="87.25" />
            </Array>
          </mxGeometry>
        </mxCell>
        <mxCell id="Q3ga4fGWOBkwMkwhp4uk-39" value="" style="endArrow=none;html=1;rounded=0;exitX=0;exitY=0.5;exitDx=0;exitDy=0;entryX=0;entryY=1;entryDx=0;entryDy=0;" parent="1" source="vaeVQvCcm71hGmkr10x6-22" edge="1">
          <mxGeometry width="50" height="50" relative="1" as="geometry">
            <mxPoint x="519.97" y="157.25" as="sourcePoint" />
            <mxPoint x="424.97" y="65.5" as="targetPoint" />
            <Array as="points">
              <mxPoint x="424.97" y="161.25" />
            </Array>
          </mxGeometry>
        </mxCell>
        <mxCell id="Q3ga4fGWOBkwMkwhp4uk-44" value="&lt;font style=&quot;font-size: 12px;&quot;&gt;&lt;b&gt;noteboock.setStock()=&lt;br&gt;&lt;/b&gt;&lt;b style=&quot;border-color: var(--border-color);&quot;&gt;noteboock.getStock()+cantidad;&lt;/b&gt;&lt;b&gt;&lt;br&gt;&lt;/b&gt;&lt;/font&gt;" style="ellipse;whiteSpace=wrap;html=1;fontSize=10;rounded=1;fillColor=#f8cecc;strokeColor=#b85450;" parent="1" vertex="1">
          <mxGeometry x="437.97" y="285.5" width="220" height="48.75" as="geometry" />
        </mxCell>
        <mxCell id="14A6H9GXZ-T4d7By30aG-2" value="&lt;span style=&quot;font-size: 12px;&quot;&gt;&lt;b&gt;dni_comprador&lt;/b&gt;&lt;/span&gt;" style="ellipse;whiteSpace=wrap;html=1;fontSize=20;rounded=1;fillColor=#ffe6cc;strokeColor=#d79b00;" parent="1" vertex="1">
          <mxGeometry x="752.3" y="558.25" width="120" height="35" as="geometry" />
        </mxCell>
        <mxCell id="14A6H9GXZ-T4d7By30aG-3" value="&lt;span style=&quot;font-size: 12px;&quot;&gt;&lt;b&gt;&lt;u&gt;garantia_compra&lt;/u&gt;&lt;/b&gt;&lt;/span&gt;" style="ellipse;whiteSpace=wrap;html=1;fontSize=10;rounded=1;fillColor=#ffe6cc;strokeColor=#d79b00;" parent="1" vertex="1">
          <mxGeometry x="752.3" y="522.25" width="120" height="35" as="geometry" />
        </mxCell>
        <mxCell id="14A6H9GXZ-T4d7By30aG-4" style="edgeStyle=orthogonalEdgeStyle;rounded=0;orthogonalLoop=1;jettySize=auto;html=1;exitX=0.5;exitY=1;exitDx=0;exitDy=0;fontSize=12;" parent="1" edge="1">
          <mxGeometry relative="1" as="geometry">
            <mxPoint x="801.3000000000002" y="518.25" as="sourcePoint" />
            <mxPoint x="801.3000000000002" y="518.25" as="targetPoint" />
          </mxGeometry>
        </mxCell>
        <mxCell id="14A6H9GXZ-T4d7By30aG-5" value="&lt;b style=&quot;&quot;&gt;&lt;font style=&quot;font-size: 10px;&quot;&gt;nom_apell_comprador&lt;/font&gt;&lt;br&gt;&lt;/b&gt;" style="ellipse;whiteSpace=wrap;html=1;fontSize=20;rounded=1;fillColor=#ffe6cc;strokeColor=#d79b00;" parent="1" vertex="1">
          <mxGeometry x="750.3" y="592.25" width="124.47" height="35" as="geometry" />
        </mxCell>
        <mxCell id="14A6H9GXZ-T4d7By30aG-6" value="&lt;font size=&quot;1&quot; style=&quot;&quot;&gt;&lt;b style=&quot;font-size: 12px;&quot;&gt;cantidad&lt;/b&gt;&lt;/font&gt;" style="ellipse;whiteSpace=wrap;html=1;fontSize=8;rounded=1;fillColor=#ffe6cc;strokeColor=#d79b00;" parent="1" vertex="1">
          <mxGeometry x="471.79999999999995" y="540.25" width="120" height="35" as="geometry" />
        </mxCell>
        <mxCell id="14A6H9GXZ-T4d7By30aG-7" value="&lt;font style=&quot;font-size: 12px;&quot;&gt;&lt;b&gt;precio_total()&lt;/b&gt;&lt;/font&gt;" style="ellipse;whiteSpace=wrap;html=1;fontSize=10;rounded=1;fillColor=#f8cecc;strokeColor=#b85450;" parent="1" vertex="1">
          <mxGeometry x="472.74" y="575.25" width="120" height="35" as="geometry" />
        </mxCell>
        <mxCell id="14A6H9GXZ-T4d7By30aG-8" value="&lt;font style=&quot;font-size: 12px;&quot;&gt;&lt;b&gt;noteboock.setStock()=&lt;br&gt;&lt;/b&gt;&lt;b style=&quot;border-color: var(--border-color);&quot;&gt;noteboock.getStock()-cantidad;&lt;/b&gt;&lt;b&gt;&lt;br&gt;&lt;/b&gt;&lt;/font&gt;" style="ellipse;whiteSpace=wrap;html=1;fontSize=10;rounded=1;fillColor=#f8cecc;strokeColor=#b85450;" parent="1" vertex="1">
          <mxGeometry x="473.47" y="610.25" width="220" height="48.75" as="geometry" />
        </mxCell>
        <mxCell id="14A6H9GXZ-T4d7By30aG-9" value="" style="endArrow=none;html=1;rounded=0;exitX=0;exitY=0.5;exitDx=0;exitDy=0;entryX=0.127;entryY=1.033;entryDx=0;entryDy=0;entryPerimeter=0;" parent="1" source="14A6H9GXZ-T4d7By30aG-7" edge="1">
          <mxGeometry width="50" height="50" relative="1" as="geometry">
            <mxPoint x="329.27" y="431" as="sourcePoint" />
            <mxPoint x="444.51" y="431.23" as="targetPoint" />
            <Array as="points">
              <mxPoint x="444.27" y="593" />
            </Array>
          </mxGeometry>
        </mxCell>
        <mxCell id="14A6H9GXZ-T4d7By30aG-10" value="" style="endArrow=none;html=1;rounded=0;exitX=0;exitY=0.5;exitDx=0;exitDy=0;entryX=0.133;entryY=1.059;entryDx=0;entryDy=0;entryPerimeter=0;" parent="1" source="14A6H9GXZ-T4d7By30aG-6" edge="1">
          <mxGeometry width="50" height="50" relative="1" as="geometry">
            <mxPoint x="329.27" y="431" as="sourcePoint" />
            <mxPoint x="445.23" y="432.78999999999996" as="targetPoint" />
            <Array as="points">
              <mxPoint x="445.27" y="558" />
            </Array>
          </mxGeometry>
        </mxCell>
        <mxCell id="14A6H9GXZ-T4d7By30aG-11" value="" style="endArrow=none;html=1;rounded=0;entryX=0;entryY=0.5;entryDx=0;entryDy=0;exitX=0;exitY=0.5;exitDx=0;exitDy=0;" parent="1" source="FKRPGxWnQrf4ftpTz-9f-34" target="FKRPGxWnQrf4ftpTz-9f-37" edge="1">
          <mxGeometry width="50" height="50" relative="1" as="geometry">
            <mxPoint x="444.77" y="560.25" as="sourcePoint" />
            <mxPoint x="494.77" y="510.25" as="targetPoint" />
            <Array as="points">
              <mxPoint x="724.77" y="504.25" />
              <mxPoint x="724.77" y="470.25" />
            </Array>
          </mxGeometry>
        </mxCell>
        <mxCell id="14A6H9GXZ-T4d7By30aG-12" value="" style="endArrow=none;html=1;rounded=0;entryX=0;entryY=0.5;entryDx=0;entryDy=0;" parent="1" target="14A6H9GXZ-T4d7By30aG-5" edge="1">
          <mxGeometry width="50" height="50" relative="1" as="geometry">
            <mxPoint x="724.77" y="610.25" as="sourcePoint" />
            <mxPoint x="494.77" y="510.25" as="targetPoint" />
          </mxGeometry>
        </mxCell>
        <mxCell id="f3KHlUI1vx1wmKI-MFEA-1" value="&lt;b&gt;Compra&lt;/b&gt;&lt;b&gt;&lt;br&gt;&lt;/b&gt;" style="rounded=1;whiteSpace=wrap;html=1;fillColor=#dae8fc;strokeColor=#6c8ebf;" vertex="1" parent="1">
          <mxGeometry x="693" y="4.5" width="120" height="60" as="geometry" />
        </mxCell>
        <mxCell id="f3KHlUI1vx1wmKI-MFEA-2" value="&lt;font size=&quot;1&quot; style=&quot;&quot;&gt;&lt;b style=&quot;font-size: 12px;&quot;&gt;fecha_compra&lt;/b&gt;&lt;/font&gt;" style="ellipse;whiteSpace=wrap;html=1;rounded=1;fillColor=#f8cecc;strokeColor=#b85450;" vertex="1" parent="1">
          <mxGeometry x="705.77" y="103.5" width="120" height="35" as="geometry" />
        </mxCell>
        <mxCell id="f3KHlUI1vx1wmKI-MFEA-3" value="&lt;font style=&quot;font-size: 12px;&quot;&gt;&lt;b&gt;&lt;u&gt;idCompra&lt;/u&gt;&lt;/b&gt;&lt;/font&gt;" style="ellipse;whiteSpace=wrap;html=1;fontSize=10;rounded=1;fillColor=#ffe6cc;strokeColor=#d79b00;" vertex="1" parent="1">
          <mxGeometry x="705.77" y="67.5" width="120" height="35" as="geometry" />
        </mxCell>
        <mxCell id="f3KHlUI1vx1wmKI-MFEA-4" value="" style="endArrow=none;html=1;rounded=0;fontSize=12;entryX=0;entryY=1;entryDx=0;entryDy=0;" edge="1" parent="1" target="f3KHlUI1vx1wmKI-MFEA-1">
          <mxGeometry width="50" height="50" relative="1" as="geometry">
            <mxPoint x="693" y="225.5" as="sourcePoint" />
            <mxPoint x="390.64" y="349.9" as="targetPoint" />
            <Array as="points" />
          </mxGeometry>
        </mxCell>
        <mxCell id="f3KHlUI1vx1wmKI-MFEA-5" value="" style="endArrow=none;html=1;rounded=0;entryX=0;entryY=0.569;entryDx=0;entryDy=0;entryPerimeter=0;" edge="1" parent="1" target="f3KHlUI1vx1wmKI-MFEA-3">
          <mxGeometry width="50" height="50" relative="1" as="geometry">
            <mxPoint x="693" y="87.5" as="sourcePoint" />
            <mxPoint x="700.24" y="87.5" as="targetPoint" />
          </mxGeometry>
        </mxCell>
        <mxCell id="f3KHlUI1vx1wmKI-MFEA-7" value="&lt;font size=&quot;1&quot; style=&quot;&quot;&gt;&lt;b style=&quot;font-size: 12px;&quot;&gt;N_Factura&lt;/b&gt;&lt;/font&gt;" style="ellipse;whiteSpace=wrap;html=1;rounded=1;fillColor=#ffe6cc;strokeColor=#d79b00;" vertex="1" parent="1">
          <mxGeometry x="705.77" y="140.5" width="120" height="35" as="geometry" />
        </mxCell>
        <mxCell id="f3KHlUI1vx1wmKI-MFEA-8" value="&lt;font size=&quot;1&quot; style=&quot;&quot;&gt;&lt;b style=&quot;font-size: 12px;&quot;&gt;id_proveedor&lt;/b&gt;&lt;/font&gt;" style="ellipse;whiteSpace=wrap;html=1;rounded=1;fillColor=#ffe6cc;strokeColor=#d79b00;" vertex="1" parent="1">
          <mxGeometry x="705.77" y="176.5" width="120" height="35" as="geometry" />
        </mxCell>
        <mxCell id="f3KHlUI1vx1wmKI-MFEA-9" value="&lt;font size=&quot;1&quot; style=&quot;&quot;&gt;&lt;b style=&quot;font-size: 12px;&quot;&gt;precio_total_fact&lt;/b&gt;&lt;/font&gt;" style="ellipse;whiteSpace=wrap;html=1;rounded=1;fillColor=#f8cecc;strokeColor=#b85450;" vertex="1" parent="1">
          <mxGeometry x="705.77" y="211.5" width="120" height="35" as="geometry" />
        </mxCell>
        <mxCell id="f3KHlUI1vx1wmKI-MFEA-10" value="" style="endArrow=none;html=1;rounded=0;" edge="1" parent="1">
          <mxGeometry width="50" height="50" relative="1" as="geometry">
            <mxPoint x="693" y="225.5" as="sourcePoint" />
            <mxPoint x="703" y="225.5" as="targetPoint" />
          </mxGeometry>
        </mxCell>
        <mxCell id="f3KHlUI1vx1wmKI-MFEA-13" value="" style="endArrow=classic;html=1;rounded=0;exitX=0;exitY=0.5;exitDx=0;exitDy=0;entryX=1;entryY=0.5;entryDx=0;entryDy=0;" edge="1" parent="1" source="FKRPGxWnQrf4ftpTz-9f-70" target="OxglG-ZOT_gyuKt3mVDD-30">
          <mxGeometry relative="1" as="geometry">
            <mxPoint x="536" y="240" as="sourcePoint" />
            <mxPoint x="696" y="240" as="targetPoint" />
          </mxGeometry>
        </mxCell>
        <mxCell id="f3KHlUI1vx1wmKI-MFEA-16" value="1" style="edgeLabel;html=1;align=center;verticalAlign=middle;resizable=0;points=[];" vertex="1" connectable="0" parent="f3KHlUI1vx1wmKI-MFEA-13">
          <mxGeometry x="0.0978" y="-1" relative="1" as="geometry">
            <mxPoint as="offset" />
          </mxGeometry>
        </mxCell>
        <mxCell id="f3KHlUI1vx1wmKI-MFEA-18" value="&lt;b&gt;Genera&lt;/b&gt;" style="rhombus;whiteSpace=wrap;html=1;fillColor=#f8cecc;strokeColor=#b85450;rounded=1;" vertex="1" parent="1">
          <mxGeometry x="583" y="-0.75" width="70" height="70" as="geometry" />
        </mxCell>
        <mxCell id="f3KHlUI1vx1wmKI-MFEA-20" value="" style="endArrow=classic;html=1;rounded=0;exitX=0;exitY=0.5;exitDx=0;exitDy=0;entryX=0.962;entryY=0.519;entryDx=0;entryDy=0;entryPerimeter=0;" edge="1" parent="1" source="f3KHlUI1vx1wmKI-MFEA-1" target="f3KHlUI1vx1wmKI-MFEA-18">
          <mxGeometry relative="1" as="geometry">
            <mxPoint x="583" y="90" as="sourcePoint" />
            <mxPoint x="683" y="90" as="targetPoint" />
          </mxGeometry>
        </mxCell>
        <mxCell id="f3KHlUI1vx1wmKI-MFEA-21" value="1" style="edgeLabel;resizable=0;html=1;align=center;verticalAlign=middle;" connectable="0" vertex="1" parent="f3KHlUI1vx1wmKI-MFEA-20">
          <mxGeometry relative="1" as="geometry" />
        </mxCell>
        <mxCell id="f3KHlUI1vx1wmKI-MFEA-22" value="" style="endArrow=classic;html=1;rounded=0;exitX=0;exitY=0.5;exitDx=0;exitDy=0;entryX=1;entryY=0.5;entryDx=0;entryDy=0;" edge="1" parent="1" source="OxglG-ZOT_gyuKt3mVDD-30" target="f3KHlUI1vx1wmKI-MFEA-1">
          <mxGeometry relative="1" as="geometry">
            <mxPoint x="863" y="35" as="sourcePoint" />
            <mxPoint x="653" y="310" as="targetPoint" />
          </mxGeometry>
        </mxCell>
        <mxCell id="f3KHlUI1vx1wmKI-MFEA-23" value="N" style="edgeLabel;resizable=0;html=1;align=center;verticalAlign=middle;" connectable="0" vertex="1" parent="f3KHlUI1vx1wmKI-MFEA-22">
          <mxGeometry relative="1" as="geometry" />
        </mxCell>
        <mxCell id="f3KHlUI1vx1wmKI-MFEA-27" value="" style="endArrow=classic;html=1;rounded=0;exitX=0;exitY=0.5;exitDx=0;exitDy=0;entryX=1;entryY=0.5;entryDx=0;entryDy=0;" edge="1" parent="1">
          <mxGeometry relative="1" as="geometry">
            <mxPoint x="585" y="34" as="sourcePoint" />
            <mxPoint x="550" y="34" as="targetPoint" />
          </mxGeometry>
        </mxCell>
        <mxCell id="f3KHlUI1vx1wmKI-MFEA-28" value="N" style="edgeLabel;resizable=0;html=1;align=center;verticalAlign=middle;" connectable="0" vertex="1" parent="f3KHlUI1vx1wmKI-MFEA-27">
          <mxGeometry relative="1" as="geometry" />
        </mxCell>
        <mxCell id="f3KHlUI1vx1wmKI-MFEA-31" value="&lt;b&gt;Genera&lt;/b&gt;" style="rhombus;whiteSpace=wrap;html=1;fillColor=#f8cecc;strokeColor=#b85450;rounded=1;" vertex="1" parent="1">
          <mxGeometry x="593" y="363.25" width="70" height="70" as="geometry" />
        </mxCell>
        <mxCell id="f3KHlUI1vx1wmKI-MFEA-32" value="" style="endArrow=classic;html=1;rounded=0;exitX=0;exitY=0.5;exitDx=0;exitDy=0;entryX=0.962;entryY=0.519;entryDx=0;entryDy=0;entryPerimeter=0;" edge="1" parent="1" target="f3KHlUI1vx1wmKI-MFEA-31">
          <mxGeometry relative="1" as="geometry">
            <mxPoint x="703" y="399" as="sourcePoint" />
            <mxPoint x="693" y="454" as="targetPoint" />
          </mxGeometry>
        </mxCell>
        <mxCell id="f3KHlUI1vx1wmKI-MFEA-33" value="1" style="edgeLabel;resizable=0;html=1;align=center;verticalAlign=middle;" connectable="0" vertex="1" parent="f3KHlUI1vx1wmKI-MFEA-32">
          <mxGeometry relative="1" as="geometry" />
        </mxCell>
        <mxCell id="f3KHlUI1vx1wmKI-MFEA-34" value="" style="endArrow=classic;html=1;rounded=0;exitX=0;exitY=0.5;exitDx=0;exitDy=0;entryX=1;entryY=0.5;entryDx=0;entryDy=0;" edge="1" parent="1">
          <mxGeometry relative="1" as="geometry">
            <mxPoint x="595" y="398" as="sourcePoint" />
            <mxPoint x="549.27" y="399.25" as="targetPoint" />
          </mxGeometry>
        </mxCell>
        <mxCell id="f3KHlUI1vx1wmKI-MFEA-35" value="N" style="edgeLabel;resizable=0;html=1;align=center;verticalAlign=middle;" connectable="0" vertex="1" parent="f3KHlUI1vx1wmKI-MFEA-34">
          <mxGeometry relative="1" as="geometry">
            <mxPoint x="4" as="offset" />
          </mxGeometry>
        </mxCell>
        <mxCell id="f3KHlUI1vx1wmKI-MFEA-36" value="" style="endArrow=classic;html=1;rounded=0;" edge="1" parent="1">
          <mxGeometry relative="1" as="geometry">
            <mxPoint x="205" y="198" as="sourcePoint" />
            <mxPoint x="305" y="198" as="targetPoint" />
          </mxGeometry>
        </mxCell>
        <mxCell id="f3KHlUI1vx1wmKI-MFEA-37" value="1" style="edgeLabel;resizable=0;html=1;align=center;verticalAlign=middle;" connectable="0" vertex="1" parent="f3KHlUI1vx1wmKI-MFEA-36">
          <mxGeometry relative="1" as="geometry" />
        </mxCell>
        <mxCell id="f3KHlUI1vx1wmKI-MFEA-38" value="" style="endArrow=classic;html=1;rounded=0;exitX=0.5;exitY=0;exitDx=0;exitDy=0;entryX=0;entryY=0.5;entryDx=0;entryDy=0;" edge="1" parent="1" source="vaeVQvCcm71hGmkr10x6-36">
          <mxGeometry relative="1" as="geometry">
            <mxPoint x="624" y="170" as="sourcePoint" />
            <mxPoint x="424.97" y="35.5" as="targetPoint" />
            <Array as="points">
              <mxPoint x="335" y="36" />
            </Array>
          </mxGeometry>
        </mxCell>
        <mxCell id="f3KHlUI1vx1wmKI-MFEA-39" value="N" style="edgeLabel;resizable=0;html=1;align=center;verticalAlign=middle;" connectable="0" vertex="1" parent="f3KHlUI1vx1wmKI-MFEA-38">
          <mxGeometry relative="1" as="geometry" />
        </mxCell>
        <mxCell id="f3KHlUI1vx1wmKI-MFEA-40" value="" style="endArrow=classic;html=1;rounded=0;exitX=0.5;exitY=1;exitDx=0;exitDy=0;entryX=0;entryY=0.5;entryDx=0;entryDy=0;" edge="1" parent="1" source="vaeVQvCcm71hGmkr10x6-36">
          <mxGeometry relative="1" as="geometry">
            <mxPoint x="730" y="330" as="sourcePoint" />
            <mxPoint x="429.27" y="399.25" as="targetPoint" />
            <Array as="points">
              <mxPoint x="335" y="400" />
            </Array>
          </mxGeometry>
        </mxCell>
        <mxCell id="f3KHlUI1vx1wmKI-MFEA-41" value="N" style="edgeLabel;resizable=0;html=1;align=center;verticalAlign=middle;" connectable="0" vertex="1" parent="f3KHlUI1vx1wmKI-MFEA-40">
          <mxGeometry relative="1" as="geometry" />
        </mxCell>
        <mxCell id="f3KHlUI1vx1wmKI-MFEA-42" value="&lt;b&gt;Detalle_venta&lt;/b&gt;" style="rounded=1;whiteSpace=wrap;html=1;fillColor=#dae8fc;strokeColor=#6c8ebf;" vertex="1" parent="1">
          <mxGeometry x="430" y="368.25" width="120" height="60" as="geometry" />
        </mxCell>
        <mxCell id="f3KHlUI1vx1wmKI-MFEA-43" value="&lt;b&gt;Detalle_Compra&lt;/b&gt;&lt;b&gt;&lt;br&gt;&lt;/b&gt;" style="rounded=1;whiteSpace=wrap;html=1;fillColor=#dae8fc;strokeColor=#6c8ebf;" vertex="1" parent="1">
          <mxGeometry x="426" y="4.25" width="120" height="60" as="geometry" />
        </mxCell>
        <mxCell id="f3KHlUI1vx1wmKI-MFEA-44" value="&lt;b&gt;Usuario&lt;/b&gt;" style="rounded=1;whiteSpace=wrap;html=1;fillColor=#dae8fc;strokeColor=#6c8ebf;" vertex="1" parent="1">
          <mxGeometry x="934" y="290.25" width="120" height="60" as="geometry" />
        </mxCell>
        <mxCell id="f3KHlUI1vx1wmKI-MFEA-45" value="&lt;font style=&quot;font-size: 12px;&quot;&gt;&lt;b&gt;apell_nom_usuario&lt;/b&gt;&lt;/font&gt;" style="ellipse;whiteSpace=wrap;html=1;fontSize=10;rounded=1;fillColor=#ffe6cc;strokeColor=#d79b00;" vertex="1" parent="1">
          <mxGeometry x="970" y="397" width="120" height="35" as="geometry" />
        </mxCell>
        <mxCell id="f3KHlUI1vx1wmKI-MFEA-46" value="&lt;font style=&quot;font-size: 12px;&quot;&gt;&lt;b&gt;&lt;u&gt;idUsuario&lt;/u&gt;&lt;/b&gt;&lt;/font&gt;" style="ellipse;whiteSpace=wrap;html=1;fontSize=10;rounded=1;fillColor=#ffe6cc;strokeColor=#d79b00;" vertex="1" parent="1">
          <mxGeometry x="970" y="360" width="120" height="35" as="geometry" />
        </mxCell>
        <mxCell id="f3KHlUI1vx1wmKI-MFEA-47" value="&lt;font style=&quot;font-size: 12px;&quot;&gt;&lt;b&gt;DNI&lt;/b&gt;&lt;/font&gt;" style="ellipse;whiteSpace=wrap;html=1;fontSize=10;rounded=1;fillColor=#ffe6cc;strokeColor=#d79b00;" vertex="1" parent="1">
          <mxGeometry x="970" y="434.5" width="120" height="35" as="geometry" />
        </mxCell>
        <mxCell id="f3KHlUI1vx1wmKI-MFEA-48" value="&lt;font style=&quot;font-size: 12px;&quot;&gt;&lt;b&gt;contraseÃ±a&lt;/b&gt;&lt;/font&gt;" style="ellipse;whiteSpace=wrap;html=1;fontSize=10;rounded=1;fillColor=#ffe6cc;strokeColor=#d79b00;" vertex="1" parent="1">
          <mxGeometry x="970" y="472" width="120" height="35" as="geometry" />
        </mxCell>
        <mxCell id="f3KHlUI1vx1wmKI-MFEA-49" value="&lt;span style=&quot;font-size: 12px;&quot;&gt;&lt;b&gt;rol&lt;/b&gt;&lt;/span&gt;" style="ellipse;whiteSpace=wrap;html=1;fontSize=10;rounded=1;fillColor=#ffe6cc;strokeColor=#d79b00;" vertex="1" parent="1">
          <mxGeometry x="974" y="510" width="120" height="35" as="geometry" />
        </mxCell>
        <mxCell id="f3KHlUI1vx1wmKI-MFEA-50" value="" style="endArrow=none;html=1;rounded=0;fontSize=12;entryX=0.5;entryY=1;entryDx=0;entryDy=0;" edge="1" parent="1">
          <mxGeometry width="50" height="50" relative="1" as="geometry">
            <mxPoint x="950" y="531" as="sourcePoint" />
            <mxPoint x="950" y="350.5" as="targetPoint" />
            <Array as="points" />
          </mxGeometry>
        </mxCell>
        <mxCell id="f3KHlUI1vx1wmKI-MFEA-51" value="" style="endArrow=none;html=1;rounded=0;fontSize=12;" edge="1" parent="1">
          <mxGeometry width="50" height="50" relative="1" as="geometry">
            <mxPoint x="950" y="531" as="sourcePoint" />
            <mxPoint x="980" y="531" as="targetPoint" />
          </mxGeometry>
        </mxCell>
        <mxCell id="f3KHlUI1vx1wmKI-MFEA-52" value="" style="endArrow=none;html=1;rounded=0;fontSize=12;entryX=0;entryY=0.5;entryDx=0;entryDy=0;" edge="1" parent="1" target="f3KHlUI1vx1wmKI-MFEA-48">
          <mxGeometry width="50" height="50" relative="1" as="geometry">
            <mxPoint x="950" y="490" as="sourcePoint" />
            <mxPoint x="969.9999999999998" y="490.5" as="targetPoint" />
          </mxGeometry>
        </mxCell>
        <mxCell id="f3KHlUI1vx1wmKI-MFEA-53" value="" style="endArrow=none;html=1;rounded=0;fontSize=12;entryX=0;entryY=0.5;entryDx=0;entryDy=0;" edge="1" parent="1" target="f3KHlUI1vx1wmKI-MFEA-47">
          <mxGeometry width="50" height="50" relative="1" as="geometry">
            <mxPoint x="950" y="452" as="sourcePoint" />
            <mxPoint x="970.96" y="452.625" as="targetPoint" />
          </mxGeometry>
        </mxCell>
        <mxCell id="f3KHlUI1vx1wmKI-MFEA-54" value="" style="endArrow=none;html=1;rounded=0;fontSize=12;entryX=0;entryY=0.474;entryDx=0;entryDy=0;entryPerimeter=0;" edge="1" parent="1" target="f3KHlUI1vx1wmKI-MFEA-45">
          <mxGeometry width="50" height="50" relative="1" as="geometry">
            <mxPoint x="950" y="414" as="sourcePoint" />
            <mxPoint x="1000" y="404" as="targetPoint" />
          </mxGeometry>
        </mxCell>
        <mxCell id="f3KHlUI1vx1wmKI-MFEA-55" value="" style="endArrow=none;html=1;rounded=0;fontSize=12;entryX=0;entryY=0.5;entryDx=0;entryDy=0;" edge="1" parent="1" target="f3KHlUI1vx1wmKI-MFEA-46">
          <mxGeometry width="50" height="50" relative="1" as="geometry">
            <mxPoint x="950" y="377" as="sourcePoint" />
            <mxPoint x="1000" y="327" as="targetPoint" />
          </mxGeometry>
        </mxCell>
        <mxCell id="f3KHlUI1vx1wmKI-MFEA-56" value="&lt;b&gt;Genera&lt;/b&gt;" style="rhombus;whiteSpace=wrap;html=1;fillColor=#f8cecc;strokeColor=#b85450;rounded=1;" vertex="1" parent="1">
          <mxGeometry x="816" y="285.25" width="70" height="70" as="geometry" />
        </mxCell>
        <mxCell id="f3KHlUI1vx1wmKI-MFEA-57" value="" style="endArrow=classic;html=1;rounded=0;exitX=0;exitY=0.5;exitDx=0;exitDy=0;entryX=1;entryY=0.5;entryDx=0;entryDy=0;" edge="1" parent="1" source="f3KHlUI1vx1wmKI-MFEA-44" target="f3KHlUI1vx1wmKI-MFEA-56">
          <mxGeometry relative="1" as="geometry">
            <mxPoint x="708" y="330" as="sourcePoint" />
            <mxPoint x="898" y="320" as="targetPoint" />
          </mxGeometry>
        </mxCell>
        <mxCell id="f3KHlUI1vx1wmKI-MFEA-58" value="1" style="edgeLabel;resizable=0;html=1;align=center;verticalAlign=middle;" connectable="0" vertex="1" parent="f3KHlUI1vx1wmKI-MFEA-57">
          <mxGeometry relative="1" as="geometry" />
        </mxCell>
        <mxCell id="f3KHlUI1vx1wmKI-MFEA-59" value="" style="endArrow=classic;html=1;rounded=0;exitX=0.5;exitY=0;exitDx=0;exitDy=0;entryX=1;entryY=0.75;entryDx=0;entryDy=0;" edge="1" parent="1" source="f3KHlUI1vx1wmKI-MFEA-56" target="f3KHlUI1vx1wmKI-MFEA-1">
          <mxGeometry relative="1" as="geometry">
            <mxPoint x="880" y="290.25" as="sourcePoint" />
            <mxPoint x="969.97" y="162.75" as="targetPoint" />
            <Array as="points">
              <mxPoint x="850" y="50" />
            </Array>
          </mxGeometry>
        </mxCell>
        <mxCell id="f3KHlUI1vx1wmKI-MFEA-60" value="N" style="edgeLabel;resizable=0;html=1;align=center;verticalAlign=middle;" connectable="0" vertex="1" parent="f3KHlUI1vx1wmKI-MFEA-59">
          <mxGeometry relative="1" as="geometry" />
        </mxCell>
        <mxCell id="f3KHlUI1vx1wmKI-MFEA-61" value="" style="endArrow=classic;html=1;rounded=0;exitX=0.5;exitY=1;exitDx=0;exitDy=0;entryX=1;entryY=0.5;entryDx=0;entryDy=0;" edge="1" parent="1" source="f3KHlUI1vx1wmKI-MFEA-56" target="FKRPGxWnQrf4ftpTz-9f-69">
          <mxGeometry relative="1" as="geometry">
            <mxPoint x="730" y="330" as="sourcePoint" />
            <mxPoint x="830" y="330" as="targetPoint" />
            <Array as="points">
              <mxPoint x="850" y="399" />
            </Array>
          </mxGeometry>
        </mxCell>
        <mxCell id="f3KHlUI1vx1wmKI-MFEA-62" value="N" style="edgeLabel;resizable=0;html=1;align=center;verticalAlign=middle;" connectable="0" vertex="1" parent="f3KHlUI1vx1wmKI-MFEA-61">
          <mxGeometry relative="1" as="geometry" />
        </mxCell>
      </root>
    </mxGraphModel>
  </diagram>
</mxfile>
